<svg width="31" height="31" viewBox="0 0 31 31" fill="none" xmlns="http://www.w3.org/2000/svg">
<path d="M26.9645 14.5536C26.9688 16.2239 26.5786 17.8716 25.8255 19.3625C24.9326 21.1491 23.56 22.6518 21.8613 23.7022C20.1626 24.7527 18.205 25.3096 16.2078 25.3103C14.5375 25.3147 12.8898 24.9245 11.3989 24.1714L4.18555 26.5758L6.58999 19.3625C5.83693 17.8716 5.44669 16.2239 5.45104 14.5536C5.45182 12.5564 6.00864 10.5988 7.05913 8.90009C8.10963 7.20141 9.61232 5.82875 11.3989 4.93586C12.8898 4.1828 14.5375 3.79256 16.2078 3.79691H16.8405C19.4782 3.94243 21.9696 5.05578 23.8376 6.92377C25.7056 8.79177 26.819 11.2831 26.9645 13.9209V14.5536Z" stroke="black" stroke-width="2.16942" stroke-linecap="round" stroke-linejoin="round"/>
</svg>
