<svg width="28" height="28" viewBox="0 0 28 28" fill="none" xmlns="http://www.w3.org/2000/svg">
<path d="M23.5887 5.70244C23.0238 5.13733 22.3532 4.68905 21.615 4.3832C20.8769 4.07734 20.0857 3.91992 19.2867 3.91992C18.4877 3.91992 17.6966 4.07734 16.9584 4.3832C16.2203 4.68905 15.5496 5.13733 14.9848 5.70244L13.8125 6.8747L12.6402 5.70244C11.4993 4.56149 9.95184 3.92051 8.33829 3.92051C6.72474 3.92051 5.17728 4.56149 4.03633 5.70244C2.89537 6.8434 2.25439 8.39086 2.25439 10.0044C2.25439 11.618 2.89537 13.1654 4.03633 14.3064L5.20858 15.4786L13.8125 24.0825L22.4164 15.4786L23.5887 14.3064C24.1538 13.7415 24.6021 13.0709 24.9079 12.3327C25.2138 11.5946 25.3712 10.8034 25.3712 10.0044C25.3712 9.2054 25.2138 8.41423 24.9079 7.67609C24.6021 6.93794 24.1538 6.26729 23.5887 5.70244Z" stroke="#FF3D00" stroke-width="1.89583" stroke-linecap="round" stroke-linejoin="round"/>
</svg>
