<svg width="28" height="28" viewBox="0 0 28 28" fill="none" xmlns="http://www.w3.org/2000/svg">
<path d="M24.5 11.667C24.5 19.8337 14 26.8337 14 26.8337C14 26.8337 3.5 19.8337 3.5 11.667C3.5 8.88222 4.60625 6.2115 6.57538 4.24237C8.54451 2.27324 11.2152 1.16699 14 1.16699C16.7848 1.16699 19.4555 2.27324 21.4246 4.24237C23.3938 6.2115 24.5 8.88222 24.5 11.667Z" stroke="#999999" stroke-width="2.33333" stroke-linecap="round" stroke-linejoin="round"/>
<path d="M14 15.167C15.933 15.167 17.5 13.6 17.5 11.667C17.5 9.734 15.933 8.16699 14 8.16699C12.067 8.16699 10.5 9.734 10.5 11.667C10.5 13.6 12.067 15.167 14 15.167Z" stroke="#999999" stroke-width="2.33333" stroke-linecap="round" stroke-linejoin="round"/>
</svg>
