<svg width="27" height="28" viewBox="0 0 27 28" fill="none" xmlns="http://www.w3.org/2000/svg">
<path d="M23.3281 13.3221C23.3319 14.7817 22.9909 16.2216 22.3328 17.5245C21.5525 19.0858 20.353 20.3989 18.8685 21.317C17.3841 22.235 15.6733 22.7216 13.928 22.7223C12.4683 22.7261 11.0284 22.385 9.72552 21.7269L3.42188 23.8282L5.52309 17.5245C4.865 16.2216 4.52397 14.7817 4.52778 13.3221C4.52845 11.5767 5.01505 9.86597 5.93307 8.38151C6.85109 6.89706 8.16427 5.69751 9.72552 4.91722C11.0284 4.25913 12.4683 3.9181 13.928 3.92191H14.4809C16.786 4.04908 18.9632 5.02202 20.5956 6.65444C22.228 8.28686 23.201 10.464 23.3281 12.7691V13.3221Z" stroke="#1976D2" stroke-width="1.89583" stroke-linecap="round" stroke-linejoin="round"/>
</svg>
