<svg width="26" height="26" viewBox="0 0 26 26" fill="none" xmlns="http://www.w3.org/2000/svg">
<path d="M24.6657 18.7398V22.2398C24.667 22.5647 24.6005 22.8863 24.4703 23.184C24.3401 23.4817 24.1492 23.749 23.9098 23.9686C23.6704 24.1883 23.3877 24.3555 23.0799 24.4596C22.7721 24.5637 22.446 24.6024 22.1224 24.5731C18.5323 24.183 15.0839 22.9563 12.054 20.9915C9.23516 19.2002 6.84525 16.8103 5.05403 13.9915C3.08233 10.9479 1.85531 7.48261 1.47236 3.87645C1.44321 3.55383 1.48155 3.22867 1.58494 2.92168C1.68834 2.61469 1.85453 2.33259 2.07292 2.09335C2.29131 1.8541 2.55713 1.66295 2.85345 1.53206C3.14977 1.40118 3.47009 1.33343 3.79403 1.33312H7.29403C7.86022 1.32755 8.40912 1.52805 8.83842 1.89724C9.26771 2.26644 9.54812 2.77914 9.62736 3.33979C9.77509 4.45986 10.0491 5.55964 10.444 6.61812C10.601 7.0357 10.635 7.48952 10.5419 7.92581C10.4489 8.36211 10.2327 8.76258 9.91903 9.07979L8.43736 10.5615C10.0982 13.4823 12.5166 15.9006 15.4374 17.5615L16.919 16.0798C17.2362 15.7661 17.6367 15.5499 18.073 15.4569C18.5093 15.3638 18.9631 15.3978 19.3807 15.5548C20.4392 15.9498 21.5389 16.2237 22.659 16.3715C23.2258 16.4514 23.7433 16.7369 24.1133 17.1735C24.4833 17.6102 24.6799 18.1676 24.6657 18.7398Z" stroke="#999999" stroke-width="2.33333" stroke-linecap="round" stroke-linejoin="round"/>
</svg>
