<svg width="36" height="36" viewBox="0 0 36 36" fill="none" xmlns="http://www.w3.org/2000/svg">
<rect x="0.189394" y="0.189394" width="35.6212" height="35.6212" rx="17.8106" fill="white"/>
<rect x="0.189394" y="0.189394" width="35.6212" height="35.6212" rx="17.8106" stroke="#B3B3B3" stroke-width="0.378788"/>
<path d="M26.8401 10.6099C26.3294 10.0989 25.7229 9.69352 25.0555 9.41696C24.388 9.14039 23.6726 8.99805 22.9501 8.99805C22.2276 8.99805 21.5122 9.14039 20.8448 9.41696C20.1773 9.69352 19.5709 10.0989 19.0601 10.6099L18.0001 11.6699L16.9401 10.6099C15.9084 9.57818 14.5092 8.99858 13.0501 8.99858C11.5911 8.99858 10.1918 9.57818 9.16012 10.6099C8.12843 11.6416 7.54883 13.0408 7.54883 14.4999C7.54883 15.9589 8.12843 17.3582 9.16012 18.3899L10.2201 19.4499L18.0001 27.2299L25.7801 19.4499L26.8401 18.3899C27.3511 17.8791 27.7565 17.2727 28.033 16.6052C28.3096 15.9378 28.4519 15.2224 28.4519 14.4999C28.4519 13.7774 28.3096 13.062 28.033 12.3945C27.7565 11.7271 27.3511 11.1206 26.8401 10.6099Z" fill="#FF3D00" stroke="#B3B3B3" stroke-width="2" stroke-linecap="round" stroke-linejoin="round"/>
</svg>
