<svg width="31" height="31" viewBox="0 0 31 31" fill="none" xmlns="http://www.w3.org/2000/svg">
<path d="M26.373 5.8337C25.7266 5.18704 24.9592 4.67406 24.1145 4.32407C23.2699 3.97409 22.3645 3.79395 21.4502 3.79395C20.5359 3.79395 19.6306 3.97409 18.7859 4.32407C17.9412 4.67406 17.1738 5.18704 16.5275 5.8337L15.186 7.17513L13.8446 5.8337C12.539 4.5281 10.7682 3.79462 8.92182 3.79462C7.07542 3.79462 5.30464 4.5281 3.99904 5.8337C2.69344 7.13931 1.95996 8.91008 1.95996 10.7565C1.95996 12.6029 2.69344 14.3737 3.99904 15.6793L5.34047 17.0207L15.186 26.8662L25.0316 17.0207L26.373 15.6793C27.0197 15.0329 27.5326 14.2655 27.8826 13.4208C28.2326 12.5761 28.4128 11.6708 28.4128 10.7565C28.4128 9.84218 28.2326 8.93683 27.8826 8.09216C27.5326 7.2475 27.0197 6.48006 26.373 5.8337Z" fill="#FF3D00" stroke="black" stroke-width="2.16942" stroke-linecap="round" stroke-linejoin="round"/>
</svg>
