<svg width="41" height="41" viewBox="0 0 41 41" fill="none" xmlns="http://www.w3.org/2000/svg">
<circle cx="20.9883" cy="20.4072" r="20" fill="#572E0E"/>
<path d="M20.9889 8.74023C27.4324 8.74023 32.6556 13.9634 32.6556 20.4069C32.6556 26.8504 27.4324 32.0736 20.9889 32.0736C14.5454 32.0736 9.32227 26.8504 9.32227 20.4069C9.32227 13.9634 14.5454 8.74023 20.9889 8.74023ZM20.9889 11.0736C18.5136 11.0736 16.1396 12.0569 14.3893 13.8072C12.6389 15.5576 11.6556 17.9315 11.6556 20.4069C11.6556 22.8823 12.6389 25.2562 14.3893 27.0066C16.1396 28.7569 18.5136 29.7402 20.9889 29.7402C23.4643 29.7402 25.8383 28.7569 27.5886 27.0066C29.3389 25.2562 30.3223 22.8823 30.3223 20.4069C30.3223 17.9315 29.3389 15.5576 27.5886 13.8072C25.8383 12.0569 23.4643 11.0736 20.9889 11.0736ZM20.9889 21.5736C22.4683 21.5736 23.8204 22.1254 24.8483 23.0319C25.0803 23.2367 25.2215 23.5254 25.2408 23.8343C25.26 24.1432 25.1558 24.4472 24.9509 24.6792C24.7461 24.9113 24.4575 25.0525 24.1485 25.0717C23.8396 25.091 23.5357 24.9867 23.3036 24.7819C22.6643 24.2181 21.8413 23.907 20.9889 23.9069C20.1011 23.9069 19.2914 24.2359 18.6743 24.7819C18.5594 24.8832 18.4256 24.961 18.2807 25.0106C18.1357 25.0603 17.9824 25.0809 17.8295 25.0713C17.6766 25.0617 17.5271 25.0221 17.3895 24.9548C17.2519 24.8874 17.1289 24.7936 17.0275 24.6787C16.9262 24.5637 16.8484 24.43 16.7988 24.2851C16.7491 24.1401 16.7285 23.9868 16.7381 23.8339C16.7477 23.681 16.7873 23.5314 16.8547 23.3938C16.922 23.2562 17.0159 23.1332 17.1308 23.0319C18.1963 22.0922 19.5682 21.5736 20.9889 21.5736ZM16.7189 15.8102L16.8438 15.8639L19.1771 17.0306C19.4435 17.1636 19.6489 17.3934 19.7514 17.6729C19.8538 17.9525 19.8455 18.2606 19.7282 18.5342C19.6108 18.8078 19.3933 19.0262 19.1201 19.1447C18.847 19.2632 18.5389 19.2727 18.2589 19.1714L18.1341 19.1166L15.8008 17.9499C15.5457 17.8215 15.3467 17.604 15.2412 17.3387C15.1358 17.0734 15.1313 16.7786 15.2287 16.5102C15.326 16.2417 15.5184 16.0183 15.7694 15.8822C16.0204 15.7462 16.3126 15.7068 16.5906 15.7717L16.7189 15.8091V15.8102ZM25.1341 15.8639C25.4001 15.7318 25.7065 15.7061 25.9908 15.7921C26.2751 15.8781 26.5159 16.0693 26.6641 16.3267C26.8123 16.5841 26.8567 16.8884 26.7883 17.1774C26.72 17.4664 26.5439 17.7185 26.2961 17.8822L26.1771 17.9499L23.8438 19.1166C23.5777 19.2487 23.2714 19.2743 22.9871 19.1884C22.7028 19.1024 22.462 18.9112 22.3138 18.6538C22.1656 18.3963 22.1211 18.0921 22.1895 17.8031C22.2579 17.514 22.4339 17.262 22.6818 17.0982L22.8008 17.0306L25.1341 15.8639Z" fill="white"/>
</svg>
