<svg width="41" height="41" viewBox="0 0 41 41" fill="none" xmlns="http://www.w3.org/2000/svg">
<circle cx="20.9883" cy="20.4072" r="20" fill="#E3D3BC"/>
<path d="M24.2876 23.7066C23.4125 24.5814 22.2257 25.0729 20.9883 25.0729C19.7508 25.0729 18.5641 24.5814 17.6889 23.7066M17.4883 18.0739H17.4999M24.4883 18.0739H24.4999M31.4883 20.4072C31.4883 21.7861 31.2167 23.1515 30.689 24.4254C30.1613 25.6993 29.3879 26.8568 28.4129 27.8318C27.4379 28.8069 26.2804 29.5803 25.0065 30.108C23.7325 30.6356 22.3672 30.9072 20.9883 30.9072C19.6094 30.9072 18.244 30.6356 16.9701 30.108C15.6962 29.5803 14.5387 28.8069 13.5637 27.8318C12.5886 26.8568 11.8152 25.6993 11.2875 24.4254C10.7599 23.1515 10.4883 21.7861 10.4883 20.4072C10.4883 17.6225 11.5945 14.9517 13.5637 12.9826C15.5328 11.0135 18.2035 9.90723 20.9883 9.90723C23.7731 9.90723 26.4438 11.0135 28.4129 12.9826C30.382 14.9517 31.4883 17.6225 31.4883 20.4072Z" stroke="black" stroke-width="2.33333" stroke-linecap="round" stroke-linejoin="round"/>
</svg>
