<svg width="41" height="41" viewBox="0 0 41 41" fill="none" xmlns="http://www.w3.org/2000/svg">
<circle cx="20.9883" cy="20.4072" r="20" fill="#705D3F"/>
<path d="M17.4883 18.0739H17.4999M24.4883 18.0739H24.4999M10.4883 20.4072C10.4883 21.7861 10.7599 23.1515 11.2875 24.4254C11.8152 25.6993 12.5886 26.8568 13.5637 27.8318C14.5387 28.8069 15.6962 29.5803 16.9701 30.108C18.244 30.6356 19.6094 30.9072 20.9883 30.9072C22.3672 30.9072 23.7325 30.6356 25.0065 30.108C26.2804 29.5803 27.4379 28.8069 28.4129 27.8318C29.3879 26.8568 30.1613 25.6993 30.689 24.4254C31.2167 23.1515 31.4883 21.7861 31.4883 20.4072C31.4883 19.0283 31.2167 17.663 30.689 16.3891C30.1613 15.1151 29.3879 13.9576 28.4129 12.9826C27.4379 12.0076 26.2804 11.2342 25.0065 10.7065C23.7325 10.1788 22.3672 9.90723 20.9883 9.90723C19.6094 9.90723 18.244 10.1788 16.9701 10.7065C15.6962 11.2342 14.5387 12.0076 13.5637 12.9826C12.5886 13.9576 11.8152 15.1151 11.2875 16.3891C10.7599 17.663 10.4883 19.0283 10.4883 20.4072Z" stroke="white" stroke-width="2.33333" stroke-linecap="round" stroke-linejoin="round"/>
<path d="M18.0713 24.1983C18.4515 23.8102 18.9053 23.502 19.4061 23.2915C19.9069 23.0811 20.4447 22.9727 20.988 22.9727C21.5312 22.9727 22.069 23.0811 22.5698 23.2915C23.0706 23.502 23.5244 23.8102 23.9046 24.1983" stroke="white" stroke-width="2.33333" stroke-linecap="round" stroke-linejoin="round"/>
</svg>
